<?xml version="1.0" encoding="utf-8"?>
<svg version="1.1" xmlns:xlink="http://www.w3.org/1999/xlink" width="34px" height="43px" xmlns="http://www.w3.org/2000/svg">
  <g transform="matrix(1 0 0 1 -433 -559 )">
    <path d="M 33.1986531986532 32.1414141414141  C 33.7328843995511 32.8170594837261  34 33.6374859708193  34 34.6026936026936  C 34 35.5679012345679  33.7328843995511 36.388327721661  33.1986531986532 37.0639730639731  L 29.3063973063973 41.986531986532  C 28.7721661054994 42.662177328844  28.1234567901235 43  27.3602693602694 43  C 26.5970819304153 43  25.9483726150393 42.662177328844  25.4141414141414 41.986531986532  L 17 31.3451178451178  L 8.58585858585859 41.986531986532  C 8.05162738496072 42.662177328844  7.40291806958474 43  6.63973063973064 43  C 5.87654320987654 43  5.22783389450056 42.662177328844  4.69360269360269 41.986531986532  L 0.801346801346801 37.0639730639731  C 0.267115600448934 36.388327721661  0 35.5679012345679  0 34.6026936026936  C 0 33.6374859708193  0.267115600448934 32.8170594837261  0.801346801346801 32.1414141414141  L 9.21548821548821 21.5  L 0.801346801346801 10.8585858585859  C 0.267115600448934 10.1829405162738  0 9.3625140291807  0 8.3973063973064  C 0 7.4320987654321  0.267115600448934 6.61167227833894  0.801346801346801 5.93602693602694  L 4.69360269360269 1.01346801346801  C 5.22783389450056 0.337822671156003  5.87654320987654 0  6.63973063973064 0  C 7.40291806958474 0  8.05162738496072 0.337822671156003  8.58585858585859 1.01346801346801  L 17 11.6548821548822  L 25.4141414141414 1.01346801346801  C 25.9483726150393 0.337822671156003  26.5970819304153 0  27.3602693602694 0  C 28.1234567901235 0  28.7721661054994 0.337822671156003  29.3063973063973 1.01346801346801  L 33.1986531986532 5.93602693602694  C 33.7328843995511 6.61167227833894  34 7.4320987654321  34 8.3973063973064  C 34 9.3625140291807  33.7328843995511 10.1829405162738  33.1986531986532 10.8585858585859  L 24.7845117845118 21.5  L 33.1986531986532 32.1414141414141  Z " fill-rule="nonzero" fill="#aaaaaa" stroke="none" transform="matrix(1 0 0 1 433 559 )" />
  </g>
</svg>