<?xml version="1.0" encoding="utf-8"?>
<svg version="1.1" xmlns:xlink="http://www.w3.org/1999/xlink" width="43px" height="44px" xmlns="http://www.w3.org/2000/svg">
  <g transform="matrix(1 0 0 1 -433 -615 )">
    <path d="M 42.2232258064516 6.07407407407408  C 42.7410752688172 6.76543209876543  43 7.60493827160494  43 8.59259259259259  C 43 9.58024691358024  42.7410752688172 10.4197530864197  42.2232258064516 11.1111111111111  L 22.138064516129 37.9259259259259  L 18.3651612903226 42.962962962963  C 17.847311827957 43.6543209876543  17.2184946236559 44  16.4787096774194 44  C 15.7389247311828 44  15.1101075268817 43.6543209876543  14.5922580645161 42.962962962963  L 10.8193548387097 37.9259259259259  L 0.776774193548387 24.5185185185185  C 0.258924731182796 23.8271604938272  0 22.9876543209877  0 22  C 0 21.0123456790123  0.258924731182796 20.1728395061728  0.776774193548387 19.4814814814815  L 4.54967741935484 14.4444444444444  C 5.06752688172043 13.7530864197531  5.69634408602151 13.4074074074074  6.43612903225806 13.4074074074074  C 7.17591397849463 13.4074074074074  7.8047311827957 13.7530864197531  8.32258064516129 14.4444444444444  L 16.4787096774194 25.3703703703704  L 34.6774193548387 1.03703703703704  C 35.1952688172043 0.345679012345677  35.8240860215054 0  36.5638709677419 0  C 37.3036559139785 0  37.9324731182796 0.345679012345677  38.4503225806452 1.03703703703704  L 42.2232258064516 6.07407407407408  Z " fill-rule="nonzero" fill="#aaaaaa" stroke="none" transform="matrix(1 0 0 1 433 615 )" />
  </g>
</svg>