<?xml version="1.0" encoding="utf-8"?>
<svg version="1.1" xmlns:xlink="http://www.w3.org/1999/xlink" width="51px" height="37px" xmlns="http://www.w3.org/2000/svg">
  <g transform="matrix(1 0 0 1 -189 -669 )">
    <path d="M 50.0787096774193 5.10774410774411  C 50.6929032258064 5.68911335578002  51 6.39506172839504  51 7.22558922558926  C 51 8.05611672278337  50.6929032258064 8.76206509539838  50.0787096774193 9.3434343434343  L 26.2567741935484 31.8922558922559  L 21.781935483871 36.1279461279461  C 21.1677419354839 36.709315375982  20.421935483871 37  19.5445161290323 37  C 18.6670967741935 37  17.9212903225807 36.709315375982  17.3070967741936 36.1279461279461  L 12.8322580645161 31.8922558922559  L 0.921290322580631 20.6178451178452  C 0.307096774193553 20.0364758698092  0 19.3305274971941  0 18.5  C 0 17.6694725028059  0.307096774193553 16.9635241301908  0.921290322580631 16.3821548821549  L 5.39612903225807 12.1464646464647  C 6.01032258064515 11.5650953984288  6.75612903225806 11.2744107744107  7.63354838709677 11.2744107744107  C 8.51096774193547 11.2744107744107  9.25677419354838 11.5650953984288  9.87096774193549 12.1464646464647  L 19.5445161290323 21.3341750841751  L 27.105611419562 14.166256776147  L 41.1290322580645 0.872053872053925  C 41.7432258064516 0.290684624017899  42.4890322580645 0  43.3664516129032 0  C 44.2438709677419 0  44.9896774193548 0.290684624017899  45.6038709677419 0.872053872053925  L 50.0787096774193 5.10774410774411  Z " fill-rule="nonzero" fill="#aaaaaa" stroke="none" transform="matrix(1 0 0 1 189 669 )" />
  </g>
</svg>