<?xml version="1.0" encoding="utf-8"?>
<svg version="1.1" xmlns:xlink="http://www.w3.org/1999/xlink" width="42px" height="37px" xmlns="http://www.w3.org/2000/svg">
  <g transform="matrix(1 0 0 1 -377 -669 )">
    <path d="M 41.010101010101 27.6565656565657  C 41.6700336700337 28.2379349046016  42 28.9438832772166  42 29.7744107744108  C 42 30.6049382716049  41.6700336700337 31.31088664422  41.010101010101 31.8922558922559  L 36.2020202020202 36.1279461279461  C 35.5420875420876 36.709315375982  34.7407407407407 37  33.7979797979798 37  C 32.8552188552189 37  32.0538720538721 36.709315375982  31.3939393939394 36.1279461279461  L 21 26.9713804713805  L 10.6060606060606 36.1279461279461  C 9.94612794612795 36.709315375982  9.14478114478115 37  8.2020202020202 37  C 7.25925925925926 37  6.45791245791246 36.709315375982  5.7979797979798 36.1279461279461  L 0.98989898989899 31.8922558922559  C 0.32996632996633 31.31088664422  0 30.6049382716049  0 29.7744107744108  C 0 28.9438832772166  0.32996632996633 28.2379349046016  0.98989898989899 27.6565656565657  L 11.3838383838384 18.5  L 0.98989898989899 9.34343434343434  C 0.32996632996633 8.76206509539843  0 8.05611672278339  0 7.22558922558923  C 0 6.39506172839506  0.32996632996633 5.68911335578002  0.98989898989899 5.10774410774411  L 5.7979797979798 0.872053872053872  C 6.45791245791246 0.290684624017956  7.25925925925926 0  8.2020202020202 0  C 9.14478114478115 0  9.94612794612795 0.290684624017956  10.6060606060606 0.872053872053872  L 21 10.0286195286195  L 31.3939393939394 0.872053872053872  C 32.0538720538721 0.290684624017956  32.8552188552189 0  33.7979797979798 0  C 34.7407407407407 0  35.5420875420876 0.290684624017956  36.2020202020202 0.872053872053872  L 41.010101010101 5.10774410774411  C 41.6700336700337 5.68911335578002  42 6.39506172839506  42 7.22558922558923  C 42 8.05611672278339  41.6700336700337 8.76206509539843  41.010101010101 9.34343434343434  L 30.6161616161616 18.5  L 41.010101010101 27.6565656565657  Z " fill-rule="nonzero" fill="#aaaaaa" stroke="none" transform="matrix(1 0 0 1 377 669 )" />
  </g>
</svg>