<?xml version="1.0" encoding="utf-8"?>
<svg version="1.1" xmlns:xlink="http://www.w3.org/1999/xlink" width="34px" height="38px" xmlns="http://www.w3.org/2000/svg">
  <g transform="matrix(1 0 0 1 -188 -676 )">
    <path d="M 33.3858064516129 5.24579124579125  C 33.7952688172043 5.84287317620651  34 6.5679012345679  34 7.42087542087542  C 34 8.27384960718294  33.7952688172043 8.99887766554433  33.3858064516129 9.5959595959596  L 17.5045161290323 32.7542087542088  L 14.5212903225806 37.1043771043771  C 14.1118279569892 37.7014590347924  13.614623655914 38  13.0296774193548 38  C 12.4447311827957 38  11.9475268817204 37.7014590347924  11.538064516129 37.1043771043771  L 8.55483870967742 32.7542087542088  L 0.614193548387097 21.1750841750842  C 0.204731182795699 20.5780022446689  0 19.8529741863075  0 19  C 0 18.1470258136925  0.204731182795699 17.4219977553311  0.614193548387097 16.8249158249158  L 3.59741935483871 12.4747474747475  C 4.00688172043011 11.8776655443322  4.50408602150538 11.5791245791246  5.08903225806452 11.5791245791246  C 5.67397849462366 11.5791245791246  6.17118279569893 11.8776655443322  6.58064516129032 12.4747474747475  L 13.0296774193548 21.9107744107744  L 27.4193548387097 0.895622895622896  C 27.8288172043011 0.298540965207631  28.3260215053764 0  28.9109677419355 0  C 29.4959139784946 0  29.9931182795699 0.298540965207631  30.4025806451613 0.895622895622896  L 33.3858064516129 5.24579124579125  Z " fill-rule="nonzero" fill="#aaaaaa" stroke="none" transform="matrix(1 0 0 1 188 676 )" />
  </g>
</svg>