<?xml version="1.0" encoding="utf-8"?>
<svg version="1.1" xmlns:xlink="http://www.w3.org/1999/xlink" width="33px" height="32px" xmlns="http://www.w3.org/2000/svg">
  <g transform="matrix(1 0 0 1 -377 -677 )">
    <path d="M 32.2222222222222 23.9191919191919  C 32.7407407407407 24.4219977553311  33 25.0325476992144  33 25.7508417508418  C 33 26.4691358024691  32.7407407407407 27.0796857463524  32.2222222222222 27.5824915824916  L 28.4444444444444 31.2457912457912  C 27.9259259259259 31.7485970819304  27.2962962962963 32  26.5555555555556 32  C 25.8148148148148 32  25.1851851851852 31.7485970819304  24.6666666666667 31.2457912457912  L 16.5 23.3265993265993  L 8.33333333333333 31.2457912457912  C 7.81481481481482 31.7485970819304  7.18518518518519 32  6.44444444444444 32  C 5.7037037037037 32  5.07407407407407 31.7485970819304  4.55555555555556 31.2457912457912  L 0.777777777777778 27.5824915824916  C 0.25925925925926 27.0796857463524  0 26.4691358024691  0 25.7508417508418  C 0 25.0325476992144  0.25925925925926 24.4219977553311  0.777777777777778 23.9191919191919  L 8.94444444444444 16  L 0.777777777777778 8.08080808080808  C 0.25925925925926 7.57800224466891  0 6.96745230078563  0 6.24915824915825  C 0 5.53086419753086  0.25925925925926 4.92031425364758  0.777777777777778 4.41750841750842  L 4.55555555555556 0.754208754208754  C 5.07407407407407 0.251402918069584  5.7037037037037 0  6.44444444444444 0  C 7.18518518518519 0  7.81481481481482 0.251402918069584  8.33333333333333 0.754208754208754  L 16.5 8.67340067340067  L 24.6666666666667 0.754208754208754  C 25.1851851851852 0.251402918069584  25.8148148148148 0  26.5555555555556 0  C 27.2962962962963 0  27.9259259259259 0.251402918069584  28.4444444444444 0.754208754208754  L 32.2222222222222 4.41750841750842  C 32.7407407407407 4.92031425364758  33 5.53086419753086  33 6.24915824915825  C 33 6.96745230078563  32.7407407407407 7.57800224466891  32.2222222222222 8.08080808080808  L 24.0555555555556 16  L 32.2222222222222 23.9191919191919  Z " fill-rule="nonzero" fill="#aaaaaa" stroke="none" transform="matrix(1 0 0 1 377 677 )" />
  </g>
</svg>