<?xml version="1.0" encoding="utf-8"?>
<svg version="1.1" xmlns:xlink="http://www.w3.org/1999/xlink" width="108px" height="105px" xmlns="http://www.w3.org/2000/svg">
  <g transform="matrix(1 0 0 1 -391 -842 )">
    <path d="M 445 842  C 475.24 842  499 865.1  499 894.5  C 499 923.9  475.24 947  445 947  C 414.76 947  391 923.9  391 894.5  C 391 865.1  414.76 842  445 842  Z " fill-rule="nonzero" fill="#ffffff" stroke="none" />
    <path d="M 445 842.5  C 474.96 842.5  498.5 865.38  498.5 894.5  C 498.5 923.62  474.96 946.5  445 946.5  C 415.04 946.5  391.5 923.62  391.5 894.5  C 391.5 865.38  415.04 842.5  445 842.5  Z " stroke-width="1" stroke="#797979" fill="none" />
  </g>
</svg>