<?xml version="1.0" encoding="utf-8"?>
<svg version="1.1" xmlns:xlink="http://www.w3.org/1999/xlink" width="44px" height="31px" xmlns="http://www.w3.org/2000/svg">
  <g transform="matrix(1 0 0 1 -176 -656 )">
    <path d="M 43.2051612903226 4.27946127946128  C 43.7350537634409 4.7665544332211  44 5.35802469135802  44 6.05387205387205  C 44 6.74971941638608  43.7350537634409 7.34118967452301  43.2051612903226 7.82828282828283  L 22.6529032258065 26.7205387205387  L 18.7922580645161 30.2693602693603  C 18.2623655913979 30.7564534231201  17.6189247311828 31  16.861935483871 31  C 16.1049462365591 31  15.4615053763441 30.7564534231201  14.9316129032258 30.2693602693603  L 11.0709677419355 26.7205387205387  L 0.794838709677419 17.2744107744108  C 0.26494623655914 16.787317620651  0 16.195847362514  0 15.5  C 0 14.804152637486  0.26494623655914 14.212682379349  0.794838709677419 13.7255892255892  L 4.65548387096774 10.1767676767677  C 5.18537634408602 9.68967452300786  5.82881720430108 9.44612794612794  6.5858064516129 9.44612794612795  C 7.34279569892473 9.44612794612794  7.98623655913979 9.68967452300786  8.51612903225806 10.1767676767677  L 16.861935483871 17.8745791245791  L 35.4838709677419 0.730639730639731  C 36.0137634408602 0.243546576879909  36.6572043010753 0  37.4141935483871 0  C 38.1711827956989 0  38.814623655914 0.243546576879909  39.3445161290323 0.730639730639731  L 43.2051612903226 4.27946127946128  Z " fill-rule="nonzero" fill="#aaaaaa" stroke="none" transform="matrix(1 0 0 1 176 656 )" />
  </g>
</svg>