<?xml version="1.0" encoding="utf-8"?>
<svg version="1.1" xmlns:xlink="http://www.w3.org/1999/xlink" width="41px" height="31px" xmlns="http://www.w3.org/2000/svg">
  <g transform="matrix(1 0 0 1 -404 -656 )">
    <path d="M 40.03367003367 23.1717171717172  C 40.6778900112233 23.658810325477  41 24.2502805836139  41 24.9461279461279  C 41 25.641975308642  40.6778900112233 26.2334455667789  40.03367003367 26.7205387205387  L 35.3400673400673 30.2693602693603  C 34.695847362514 30.7564534231201  33.9135802469136 31  32.993265993266 31  C 32.0729517396184 31  31.290684624018 30.7564534231201  30.6464646464646 30.2693602693603  L 20.5 22.5976430976431  L 10.3535353535354 30.2693602693603  C 9.70931537598204 30.7564534231201  8.92704826038159 31  8.00673400673401 31  C 7.08641975308642 31  6.30415263748597 30.7564534231201  5.65993265993266 30.2693602693603  L 0.966329966329966 26.7205387205387  C 0.322109988776656 26.2334455667789  0 25.641975308642  0 24.9461279461279  C 0 24.2502805836139  0.322109988776656 23.658810325477  0.966329966329966 23.1717171717172  L 11.1127946127946 15.5  L 0.966329966329966 7.82828282828283  C 0.322109988776656 7.34118967452301  0 6.74971941638608  0 6.05387205387205  C 0 5.35802469135802  0.322109988776656 4.7665544332211  0.966329966329966 4.27946127946128  L 5.65993265993266 0.730639730639731  C 6.30415263748597 0.243546576879909  7.08641975308642 0  8.00673400673401 0  C 8.92704826038159 0  9.70931537598204 0.243546576879909  10.3535353535354 0.730639730639731  L 20.5 8.4023569023569  L 30.6464646464646 0.730639730639731  C 31.290684624018 0.243546576879909  32.0729517396184 0  32.993265993266 0  C 33.9135802469136 0  34.695847362514 0.243546576879909  35.3400673400673 0.730639730639731  L 40.03367003367 4.27946127946128  C 40.6778900112233 4.7665544332211  41 5.35802469135802  41 6.05387205387205  C 41 6.74971941638608  40.6778900112233 7.34118967452301  40.03367003367 7.82828282828283  L 29.8872053872054 15.5  L 40.03367003367 23.1717171717172  Z " fill-rule="nonzero" fill="#aaaaaa" stroke="none" transform="matrix(1 0 0 1 404 656 )" />
  </g>
</svg>