<?xml version="1.0" encoding="utf-8"?>
<svg version="1.1" xmlns:xlink="http://www.w3.org/1999/xlink" width="45px" height="30px" xmlns="http://www.w3.org/2000/svg">
  <g transform="matrix(1 0 0 1 -190 -658 )">
    <path d="M 44.1870967741935 4.14141414141414  C 44.7290322580645 4.61279461279461  45 5.18518518518519  45 5.85858585858586  C 45 6.53198653198653  44.7290322580645 7.1043771043771  44.1870967741935 7.57575757575757  L 23.1677419354839 25.8585858585859  L 19.2193548387097 29.2929292929293  C 18.6774193548387 29.7643097643098  18.0193548387097 30  17.2451612903226 30  C 16.4709677419355 30  15.8129032258065 29.7643097643098  15.2709677419355 29.2929292929293  L 11.3225806451613 25.8585858585859  L 0.812903225806452 16.7171717171717  C 0.270967741935484 16.2457912457912  0 15.6734006734007  0 15  C 0 14.3265993265993  0.270967741935484 13.7542087542088  0.812903225806452 13.2828282828283  L 4.76129032258064 9.84848484848485  C 5.30322580645161 9.37710437710438  5.96129032258065 9.14141414141414  6.73548387096774 9.14141414141414  C 7.50967741935484 9.14141414141414  8.16774193548387 9.37710437710438  8.70967741935484 9.84848484848485  L 17.2451612903226 17.2979797979798  L 36.2903225806452 0.707070707070707  C 36.8322580645161 0.235690235690235  37.4903225806452 0  38.2645161290323 0  C 39.0387096774194 0  39.6967741935484 0.235690235690235  40.2387096774194 0.707070707070707  L 44.1870967741935 4.14141414141414  Z " fill-rule="nonzero" fill="#aaaaaa" stroke="none" transform="matrix(1 0 0 1 190 658 )" />
  </g>
</svg>