<?xml version="1.0" encoding="utf-8"?>
<svg version="1.1" xmlns:xlink="http://www.w3.org/1999/xlink" width="39px" height="37px" xmlns="http://www.w3.org/2000/svg">
  <g transform="matrix(1 0 0 1 -391 -651 )">
    <path d="M 38.0808080808081 27.6565656565657  C 38.6936026936027 28.2379349046016  39 28.9438832772166  39 29.7744107744108  C 39 30.6049382716049  38.6936026936027 31.31088664422  38.0808080808081 31.8922558922559  L 33.6161616161616 36.1279461279461  C 33.003367003367 36.709315375982  32.2592592592593 37  31.3838383838384 37  C 30.5084175084175 37  29.7643097643098 36.709315375982  29.1515151515152 36.1279461279461  L 19.5 26.9713804713805  L 9.84848484848485 36.1279461279461  C 9.23569023569024 36.709315375982  8.49158249158249 37  7.61616161616162 37  C 6.74074074074074 37  5.996632996633 36.709315375982  5.38383838383838 36.1279461279461  L 0.919191919191919 31.8922558922559  C 0.306397306397307 31.31088664422  0 30.6049382716049  0 29.7744107744108  C 0 28.9438832772166  0.306397306397307 28.2379349046016  0.919191919191919 27.6565656565657  L 10.5707070707071 18.5  L 0.919191919191919 9.34343434343434  C 0.306397306397307 8.76206509539843  0 8.05611672278339  0 7.22558922558923  C 0 6.39506172839506  0.306397306397307 5.68911335578002  0.919191919191919 5.10774410774411  L 5.38383838383838 0.872053872053872  C 5.996632996633 0.290684624017956  6.74074074074074 0  7.61616161616162 0  C 8.49158249158249 0  9.23569023569024 0.290684624017956  9.84848484848485 0.872053872053872  L 19.5 10.0286195286195  L 29.1515151515152 0.872053872053872  C 29.7643097643098 0.290684624017956  30.5084175084175 0  31.3838383838384 0  C 32.2592592592593 0  33.003367003367 0.290684624017956  33.6161616161616 0.872053872053872  L 38.0808080808081 5.10774410774411  C 38.6936026936027 5.68911335578002  39 6.39506172839506  39 7.22558922558923  C 39 8.05611672278339  38.6936026936027 8.76206509539843  38.0808080808081 9.34343434343434  L 28.4292929292929 18.5  L 38.0808080808081 27.6565656565657  Z " fill-rule="nonzero" fill="#aaaaaa" stroke="none" transform="matrix(1 0 0 1 391 651 )" />
  </g>
</svg>