<?xml version="1.0" encoding="utf-8"?>
<svg version="1.1" xmlns:xlink="http://www.w3.org/1999/xlink" width="38px" height="36px" xmlns="http://www.w3.org/2000/svg">
  <g transform="matrix(1 0 0 1 -97 -215 )">
    <path d="M 36.8761160714286 16.2675  C 37.6253720238095 18.2775  38 20.775  38 23.76  C 38 26.25  37.1023065476191 29.6325  35.3069196428571 33.9075  C 35.2645089285714 34.0125  35.1902901785714 34.1925  35.0842633928571 34.4475  C 34.9782366071429 34.7025  34.8828125 34.9275  34.7979910714286 35.1225  C 34.7131696428571 35.3175  34.6212797619048 35.4825  34.5223214285714 35.6175  C 34.3526785714286 35.8725  34.1547619047619 36  33.9285714285714 36  C 33.7165178571429 36  33.5504092261905 35.925  33.4302455357143 35.775  C 33.3100818452381 35.625  33.25 35.4375  33.25 35.2125  C 33.25 35.0775  33.2676711309524 34.87875  33.3030133928571 34.61625  C 33.3383556547619 34.35375  33.3560267857143 34.1775  33.3560267857143 34.0875  C 33.4267113095238 33.0675  33.4620535714286 32.145  33.4620535714286 31.32  C 33.4620535714286 29.805  33.3383556547619 28.4475  33.0909598214286 27.2475  C 32.8435639880952 26.0475  32.5007440476191 25.00875  32.0625 24.13125  C 31.624255952381 23.25375  31.0587797619048 22.49625  30.3660714285714 21.85875  C 29.6733630952381 21.22125  28.9276413690476 20.7  28.12890625 20.295  C 27.3301711309524 19.89  26.3900669642857 19.57125  25.30859375 19.33875  C 24.2271205357143 19.10625  23.1385788690476 18.945  22.04296875 18.855  C 20.9473586309524 18.765  19.7068452380952 18.72  18.3214285714286 18.72  L 13.5714285714286 18.72  L 13.5714285714286 24.48  C 13.5714285714286 24.87  13.4371279761905 25.2075  13.1685267857143 25.4925  C 12.8999255952381 25.7775  12.5818452380952 25.92  12.2142857142857 25.92  C 11.8467261904762 25.92  11.5286458333333 25.7775  11.2600446428571 25.4925  L 0.402901785714286 13.9725  C 0.134300595238095 13.6875  0 13.35  0 12.96  C 0 12.57  0.134300595238095 12.2325  0.402901785714286 11.9475  L 11.2600446428571 0.427499999999999  C 11.5286458333333 0.142499999999998  11.8467261904762 0  12.2142857142857 0  C 12.5818452380952 0  12.8999255952381 0.142499999999998  13.1685267857143 0.427499999999999  C 13.4371279761905 0.712499999999995  13.5714285714286 1.05  13.5714285714286 1.44  L 13.5714285714286 7.2  L 18.3214285714286 7.2  C 28.4010416666667 7.2  34.5859375 10.2225  36.8761160714286 16.2675  Z " fill-rule="nonzero" fill="#aaaaaa" stroke="none" transform="matrix(1 0 0 1 97 215 )" />
  </g>
</svg>