<?xml version="1.0" encoding="utf-8"?>
<svg version="1.1" xmlns:xlink="http://www.w3.org/1999/xlink" width="37px" height="37px" xmlns="http://www.w3.org/2000/svg">
  <g transform="matrix(1 0 0 1 -97 -214 )">
    <path d="M 35.9056919642857 16.719375  C 36.6352306547619 18.7852083333333  37 21.3520833333333  37 24.42  C 37 26.9791666666667  36.1259300595238 30.455625  34.3777901785714 34.849375  C 34.3364955357143 34.9572916666667  34.2642299107143 35.1422916666667  34.1609933035714 35.404375  C 34.0577566964286 35.6664583333333  33.96484375 35.8977083333333  33.8822544642857 36.098125  C 33.7996651785714 36.2985416666667  33.710193452381 36.468125  33.6138392857143 36.606875  C 33.4486607142857 36.8689583333333  33.2559523809524 37  33.0357142857143 37  C 32.8292410714286 37  32.6675037202381 36.9229166666667  32.5505022321429 36.76875  C 32.4335007440476 36.6145833333333  32.375 36.421875  32.375 36.190625  C 32.375 36.051875  32.3922061011905 35.8476041666667  32.4266183035714 35.5778125  C 32.4610305059524 35.3080208333333  32.4782366071429 35.126875  32.4782366071429 35.034375  C 32.5470610119048 33.9860416666667  32.5814732142857 33.0379166666667  32.5814732142857 32.19  C 32.5814732142857 30.6329166666667  32.4610305059524 29.2377083333333  32.2201450892857 28.004375  C 31.9792596726191 26.7710416666667  31.6454613095238 25.7034375  31.21875 24.8015625  C 30.7920386904762 23.8996875  30.241443452381 23.1211458333333  29.5669642857143 22.4659375  C 28.8924851190476 21.8107291666667  28.1663876488095 21.275  27.388671875 20.85875  C 26.6109561011905 20.4425  25.6955915178571 20.1148958333333  24.642578125 19.8759375  C 23.5895647321429 19.6369791666667  22.5296688988095 19.47125  21.462890625 19.37875  C 20.3961123511905 19.28625  19.188244047619 19.24  17.8392857142857 19.24  L 13.2142857142857 19.24  L 13.2142857142857 25.16  C 13.2142857142857 25.5608333333333  13.0835193452381 25.9077083333333  12.8219866071429 26.200625  C 12.5604538690476 26.4935416666667  12.250744047619 26.64  11.8928571428571 26.64  C 11.5349702380952 26.64  11.2252604166667 26.4935416666667  10.9637276785714 26.200625  L 0.392299107142857 14.360625  C 0.130766369047619 14.0677083333333  0 13.7208333333333  0 13.32  C 0 12.9191666666667  0.130766369047619 12.5722916666667  0.392299107142857 12.279375  L 10.9637276785714 0.439374999999999  C 11.2252604166667 0.146458333333332  11.5349702380952 0  11.8928571428571 0  C 12.250744047619 0  12.5604538690476 0.146458333333332  12.8219866071429 0.439374999999999  C 13.0835193452381 0.732291666666662  13.2142857142857 1.07916666666666  13.2142857142857 1.48  L 13.2142857142857 7.4  L 17.8392857142857 7.4  C 27.6536458333333 7.4  33.67578125 10.5064583333333  35.9056919642857 16.719375  Z " fill-rule="nonzero" fill="#aaaaaa" stroke="none" transform="matrix(1 0 0 1 97 214 )" />
  </g>
</svg>