<?xml version="1.0" encoding="utf-8"?>
<svg version="1.1" xmlns:xlink="http://www.w3.org/1999/xlink" width="46px" height="36px" xmlns="http://www.w3.org/2000/svg">
  <g transform="matrix(1 0 0 1 -90 -210 )">
    <path d="M 44.6395089285714 16.2675  C 45.5465029761905 18.2775  46 20.775  46 23.76  C 46 26.25  44.913318452381 29.6325  42.7399553571429 33.9075  C 42.6886160714286 34.0125  42.5987723214286 34.1925  42.4704241071429 34.4475  C 42.3420758928571 34.7025  42.2265625 34.9275  42.1238839285714 35.1225  C 42.0212053571429 35.3175  41.9099702380952 35.4825  41.7901785714286 35.6175  C 41.5848214285714 35.8725  41.3452380952381 36  41.0714285714286 36  C 40.8147321428571 36  40.6136532738095 35.925  40.4681919642857 35.775  C 40.3227306547619 35.625  40.25 35.4375  40.25 35.2125  C 40.25 35.0775  40.2713913690476 34.87875  40.3141741071429 34.61625  C 40.3569568452381 34.35375  40.3783482142857 34.1775  40.3783482142857 34.0875  C 40.4639136904762 33.0675  40.5066964285714 32.145  40.5066964285714 31.32  C 40.5066964285714 29.805  40.3569568452381 28.4475  40.0574776785714 27.2475  C 39.7579985119048 26.0475  39.343005952381 25.00875  38.8125 24.13125  C 38.2819940476191 23.25375  37.5974702380952 22.49625  36.7589285714286 21.85875  C 35.9203869047619 21.22125  35.0176711309524 20.7  34.05078125 20.295  C 33.0838913690476 19.89  31.9458705357143 19.57125  30.63671875 19.33875  C 29.3275669642857 19.10625  28.0098586309524 18.945  26.68359375 18.855  C 25.3573288690476 18.765  23.8556547619048 18.72  22.1785714285714 18.72  L 16.4285714285714 18.72  L 16.4285714285714 24.48  C 16.4285714285714 24.87  16.2659970238095 25.2075  15.9408482142857 25.4925  C 15.6156994047619 25.7775  15.2306547619048 25.92  14.7857142857143 25.92  C 14.3407738095238 25.92  13.9557291666667 25.7775  13.6305803571429 25.4925  L 0.487723214285714 13.9725  C 0.162574404761905 13.6875  0 13.35  0 12.96  C 0 12.57  0.162574404761905 12.2325  0.487723214285714 11.9475  L 13.6305803571429 0.427499999999999  C 13.9557291666667 0.142499999999998  14.3407738095238 0  14.7857142857143 0  C 15.2306547619048 0  15.6156994047619 0.142499999999998  15.9408482142857 0.427499999999999  C 16.2659970238095 0.712499999999995  16.4285714285714 1.05  16.4285714285714 1.44  L 16.4285714285714 7.2  L 22.1785714285714 7.2  C 34.3802083333333 7.2  41.8671875 10.2225  44.6395089285714 16.2675  Z " fill-rule="nonzero" fill="#7f7f7f" stroke="none" transform="matrix(1 0 0 1 90 210 )" />
  </g>
</svg>