<?xml version="1.0" encoding="utf-8"?>
<svg version="1.1" xmlns:xlink="http://www.w3.org/1999/xlink" width="39px" height="37px" xmlns="http://www.w3.org/2000/svg">
  <g transform="matrix(1 0 0 1 -93 -198 )">
    <path d="M 37.8465401785714 16.719375  C 38.6155133928571 18.7852083333333  39 21.3520833333333  39 24.42  C 39 26.9791666666667  38.0786830357143 30.455625  36.2360491071429 34.849375  C 36.1925223214286 34.9572916666667  36.1163504464286 35.1422916666667  36.0075334821429 35.404375  C 35.8987165178571 35.6664583333333  35.80078125 35.8977083333333  35.7137276785714 36.098125  C 35.6266741071429 36.2985416666667  35.5323660714286 36.468125  35.4308035714286 36.606875  C 35.2566964285714 36.8689583333333  35.0535714285714 37  34.8214285714286 37  C 34.6037946428571 37  34.4333147321429 36.9229166666667  34.3099888392857 36.76875  C 34.1866629464286 36.6145833333333  34.125 36.421875  34.125 36.190625  C 34.125 36.051875  34.1431361607143 35.8476041666667  34.1794084821429 35.5778125  C 34.2156808035714 35.3080208333333  34.2338169642857 35.126875  34.2338169642857 35.034375  C 34.3063616071429 33.9860416666667  34.3426339285714 33.0379166666667  34.3426339285714 32.19  C 34.3426339285714 30.6329166666667  34.2156808035714 29.2377083333333  33.9617745535714 28.004375  C 33.7078683035714 26.7710416666667  33.3560267857143 25.7034375  32.90625 24.8015625  C 32.4564732142857 23.8996875  31.8761160714286 23.1211458333333  31.1651785714286 22.4659375  C 30.4542410714286 21.8107291666667  29.6888950892857 21.275  28.869140625 20.85875  C 28.0493861607143 20.4425  27.0845424107143 20.1148958333333  25.974609375 19.8759375  C 24.8646763392857 19.6369791666667  23.7474888392857 19.47125  22.623046875 19.37875  C 21.4986049107143 19.28625  20.2254464285714 19.24  18.8035714285714 19.24  L 13.9285714285714 19.24  L 13.9285714285714 25.16  C 13.9285714285714 25.5608333333333  13.7907366071429 25.9077083333333  13.5150669642857 26.200625  C 13.2393973214286 26.4935416666667  12.9129464285714 26.64  12.5357142857143 26.64  C 12.1584821428571 26.64  11.83203125 26.4935416666667  11.5563616071429 26.200625  L 0.413504464285714 14.360625  C 0.137834821428571 14.0677083333333  0 13.7208333333333  0 13.32  C 0 12.9191666666667  0.137834821428571 12.5722916666667  0.413504464285714 12.279375  L 11.5563616071429 0.439374999999999  C 11.83203125 0.146458333333332  12.1584821428571 0  12.5357142857143 0  C 12.9129464285714 0  13.2393973214286 0.146458333333332  13.5150669642857 0.439374999999999  C 13.7907366071429 0.732291666666662  13.9285714285714 1.07916666666666  13.9285714285714 1.48  L 13.9285714285714 7.4  L 18.8035714285714 7.4  C 29.1484375 7.4  35.49609375 10.5064583333333  37.8465401785714 16.719375  Z " fill-rule="nonzero" fill="#aaaaaa" stroke="none" transform="matrix(1 0 0 1 93 198 )" />
  </g>
</svg>