<?xml version="1.0" encoding="utf-8"?>
<svg version="1.1" xmlns:xlink="http://www.w3.org/1999/xlink" width="72px" height="81px" xmlns="http://www.w3.org/2000/svg">
  <g transform="matrix(1 0 0 1 -296 -853 )">
    <path d="M 332 853  C 352.16 853  368 870.82  368 893.5  C 368 916.18  352.16 934  332 934  C 311.84 934  296 916.18  296 893.5  C 296 870.82  311.84 853  332 853  Z " fill-rule="nonzero" fill="#ffffff" stroke="none" />
    <path d="M 332 853.5  C 351.88 853.5  367.5 871.1  367.5 893.5  C 367.5 915.9  351.88 933.5  332 933.5  C 312.12 933.5  296.5 915.9  296.5 893.5  C 296.5 871.1  312.12 853.5  332 853.5  Z " stroke-width="1" stroke="#797979" fill="none" />
  </g>
</svg>