<?xml version="1.0" encoding="utf-8"?>
<svg version="1.1" xmlns:xlink="http://www.w3.org/1999/xlink" width="45px" height="45px" xmlns="http://www.w3.org/2000/svg">
  <g transform="matrix(1 0 0 1 -282 -892 )">
    <path d="M 43.9393939393939 33.6363636363636  C 44.6464646464647 34.3434343434343  45 35.2020202020202  45 36.2121212121212  C 45 37.2222222222222  44.6464646464647 38.0808080808081  43.9393939393939 38.7878787878788  L 38.7878787878788 43.9393939393939  C 38.0808080808081 44.6464646464647  37.2222222222222 45  36.2121212121212 45  C 35.2020202020202 45  34.3434343434343 44.6464646464647  33.6363636363636 43.9393939393939  L 22.5 32.8030303030303  L 11.3636363636364 43.9393939393939  C 10.6565656565657 44.6464646464647  9.7979797979798 45  8.78787878787879 45  C 7.77777777777778 45  6.91919191919192 44.6464646464647  6.21212121212121 43.9393939393939  L 1.06060606060606 38.7878787878788  C 0.353535353535354 38.0808080808081  0 37.2222222222222  0 36.2121212121212  C 0 35.2020202020202  0.353535353535354 34.3434343434343  1.06060606060606 33.6363636363636  L 12.1969696969697 22.5  L 1.06060606060606 11.3636363636364  C 0.353535353535354 10.6565656565657  0 9.7979797979798  0 8.78787878787879  C 0 7.77777777777778  0.353535353535354 6.91919191919191  1.06060606060606 6.21212121212121  L 6.21212121212121 1.06060606060606  C 6.91919191919192 0.353535353535352  7.77777777777778 0  8.78787878787879 0  C 9.7979797979798 0  10.6565656565657 0.353535353535352  11.3636363636364 1.06060606060606  L 22.5 12.1969696969697  L 33.6363636363636 1.06060606060606  C 34.3434343434343 0.353535353535352  35.2020202020202 0  36.2121212121212 0  C 37.2222222222222 0  38.0808080808081 0.353535353535352  38.7878787878788 1.06060606060606  L 43.9393939393939 6.21212121212121  C 44.6464646464647 6.91919191919191  45 7.77777777777778  45 8.78787878787879  C 45 9.7979797979798  44.6464646464647 10.6565656565657  43.9393939393939 11.3636363636364  L 32.8030303030303 22.5  L 43.9393939393939 33.6363636363636  Z " fill-rule="nonzero" fill="#7f7f7f" stroke="none" transform="matrix(1 0 0 1 282 892 )" />
  </g>
</svg>