<?xml version="1.0" encoding="utf-8"?>
<svg version="1.1" xmlns:xlink="http://www.w3.org/1999/xlink" width="38px" height="37px" xmlns="http://www.w3.org/2000/svg">
  <g transform="matrix(1 0 0 1 -93 -198 )">
    <path d="M 36.8761160714286 16.719375  C 37.6253720238095 18.7852083333333  38 21.3520833333333  38 24.42  C 38 26.9791666666667  37.1023065476191 30.455625  35.3069196428571 34.849375  C 35.2645089285714 34.9572916666667  35.1902901785714 35.1422916666667  35.0842633928571 35.404375  C 34.9782366071429 35.6664583333333  34.8828125 35.8977083333333  34.7979910714286 36.098125  C 34.7131696428571 36.2985416666667  34.6212797619048 36.468125  34.5223214285714 36.606875  C 34.3526785714286 36.8689583333333  34.1547619047619 37  33.9285714285714 37  C 33.7165178571429 37  33.5504092261905 36.9229166666667  33.4302455357143 36.76875  C 33.3100818452381 36.6145833333333  33.25 36.421875  33.25 36.190625  C 33.25 36.051875  33.2676711309524 35.8476041666667  33.3030133928571 35.5778125  C 33.3383556547619 35.3080208333333  33.3560267857143 35.126875  33.3560267857143 35.034375  C 33.4267113095238 33.9860416666667  33.4620535714286 33.0379166666667  33.4620535714286 32.19  C 33.4620535714286 30.6329166666667  33.3383556547619 29.2377083333333  33.0909598214286 28.004375  C 32.8435639880952 26.7710416666667  32.5007440476191 25.7034375  32.0625 24.8015625  C 31.624255952381 23.8996875  31.0587797619048 23.1211458333333  30.3660714285714 22.4659375  C 29.6733630952381 21.8107291666667  28.9276413690476 21.275  28.12890625 20.85875  C 27.3301711309524 20.4425  26.3900669642857 20.1148958333333  25.30859375 19.8759375  C 24.2271205357143 19.6369791666667  23.1385788690476 19.47125  22.04296875 19.37875  C 20.9473586309524 19.28625  19.7068452380952 19.24  18.3214285714286 19.24  L 13.5714285714286 19.24  L 13.5714285714286 25.16  C 13.5714285714286 25.5608333333333  13.4371279761905 25.9077083333333  13.1685267857143 26.200625  C 12.8999255952381 26.4935416666667  12.5818452380952 26.64  12.2142857142857 26.64  C 11.8467261904762 26.64  11.5286458333333 26.4935416666667  11.2600446428571 26.200625  L 0.402901785714286 14.360625  C 0.134300595238095 14.0677083333333  0 13.7208333333333  0 13.32  C 0 12.9191666666667  0.134300595238095 12.5722916666667  0.402901785714286 12.279375  L 11.2600446428571 0.439374999999999  C 11.5286458333333 0.146458333333332  11.8467261904762 0  12.2142857142857 0  C 12.5818452380952 0  12.8999255952381 0.146458333333332  13.1685267857143 0.439374999999999  C 13.4371279761905 0.732291666666662  13.5714285714286 1.07916666666666  13.5714285714286 1.48  L 13.5714285714286 7.4  L 18.3214285714286 7.4  C 28.4010416666667 7.4  34.5859375 10.5064583333333  36.8761160714286 16.719375  Z " fill-rule="nonzero" fill="#aaaaaa" stroke="none" transform="matrix(1 0 0 1 93 198 )" />
  </g>
</svg>